<svg width="56" height="56" viewBox="0 0 56 56" fill="none" xmlns="http://www.w3.org/2000/svg">
<path d="M0 16C0 7.16344 7.16344 0 16 0H40C48.8366 0 56 7.16344 56 16V40C56 48.8366 48.8366 56 40 56H16C7.16344 56 0 48.8366 0 40V16Z" fill="#5865F2"/>
<g clip-path="url(#clip0_1792_5934)">
<path d="M36.3302 20.2747C34.7563 19.5383 33.0912 19.015 31.3789 18.7188C31.1656 19.1043 30.9165 19.623 30.7446 20.0356C28.8985 19.758 27.0693 19.758 25.2571 20.0356C25.0854 19.6231 24.8306 19.1043 24.6153 18.7188C22.9014 19.0152 21.2349 19.5398 19.6602 20.2786C16.5267 25.0138 15.6772 29.6312 16.1019 34.1834C18.1802 35.7354 20.1944 36.6782 22.1746 37.2952C22.6667 36.6185 23.1017 35.902 23.4752 35.1531C22.7642 34.8825 22.0788 34.5489 21.4271 34.1564C21.5986 34.0293 21.766 33.8968 21.9292 33.7592C25.8781 35.6062 30.1689 35.6062 34.0708 33.7592C34.2347 33.8959 34.4021 34.0283 34.5728 34.1564C33.9201 34.5499 33.2334 34.8842 32.521 35.1551C32.8966 35.907 33.3308 36.6242 33.8216 37.2971C35.8036 36.6802 37.8196 35.7374 39.898 34.1834C40.3964 28.9064 39.0467 24.3313 36.3302 20.2747ZM24.0132 31.3839C22.8277 31.3839 21.8555 30.2772 21.8555 28.9295C21.8555 27.5819 22.807 26.4733 24.0132 26.4733C25.2195 26.4733 26.1916 27.5799 26.1708 28.9295C26.1727 30.2772 25.2195 31.3839 24.0132 31.3839ZM31.9867 31.3839C30.8012 31.3839 29.8291 30.2772 29.8291 28.9295C29.8291 27.5819 30.7805 26.4733 31.9867 26.4733C33.193 26.4733 34.1651 27.5799 34.1444 28.9295C34.1444 30.2772 33.193 31.3839 31.9867 31.3839Z" fill="white"/>
</g>
<defs>
<clipPath id="clip0_1792_5934">
<rect width="24" height="24" fill="white" transform="translate(16 16)"/>
</clipPath>
</defs>
</svg>
