<svg width="56" height="56" viewBox="0 0 56 56" fill="none" xmlns="http://www.w3.org/2000/svg">
<path d="M0 16C0 7.16344 7.16344 0 16 0H40C48.8366 0 56 7.16344 56 16V40C56 48.8366 48.8366 56 40 56H16C7.16344 56 0 48.8366 0 40V16Z" fill="#25A2E0"/>
<path fill-rule="evenodd" clip-rule="evenodd" d="M37.7784 18.0249C37.6732 18.0462 37.2078 18.2087 36.7442 18.3859C36.2805 18.5632 34.434 19.2702 32.641 19.9571C30.8479 20.644 26.6188 22.2629 23.243 23.5549C19.8671 24.8468 16.9836 25.9594 16.8352 26.0272C15.8806 26.4637 15.7242 27.0741 16.4701 27.4526C16.7487 27.594 21.9783 29.2286 22.0738 29.2042C22.1109 29.1947 24.8325 27.5014 28.1218 25.4414C31.4112 23.3813 34.1885 21.6467 34.2937 21.5867C34.6346 21.3926 35.0548 21.449 34.9673 21.6771C34.9482 21.7266 27.6808 28.2842 25.1788 30.5096L25.0237 30.6475L24.8568 33.0252C24.765 34.3329 24.6779 35.5395 24.6631 35.7064L24.6363 36.01L24.8052 36.0095C25.1632 36.0086 25.3607 35.8564 26.8403 34.4417C27.6193 33.6967 28.2792 33.0956 28.3067 33.1059C28.3343 33.1161 29.5365 33.9888 30.9784 35.0452C32.4202 36.1015 33.686 37.0039 33.7912 37.0504C34.5576 37.3894 35.1343 37.1294 35.4135 36.319C35.447 36.2214 36.2667 32.4444 37.2348 27.9256C38.9197 20.0611 38.9952 19.6884 38.9994 19.2149C39.0032 18.7858 38.9906 18.6957 38.9046 18.5348C38.6821 18.1189 38.2596 17.9276 37.7784 18.0249Z" fill="white"/>
</svg>
