<svg width="56" height="56" viewBox="0 0 56 56" fill="none" xmlns="http://www.w3.org/2000/svg">
<path d="M0 16C0 7.16344 7.16344 0 16 0H40C48.8366 0 56 7.16344 56 16V40C56 48.8366 48.8366 56 40 56H16C7.16344 56 0 48.8366 0 40V16Z" fill="#0077FF"/>
<path fill-rule="evenodd" clip-rule="evenodd" d="M25.7031 21.0249C24.8407 21.1173 24.4311 21.2653 24.137 21.5909C23.8979 21.8555 23.9124 21.9444 24.2047 22.0072C24.7041 22.1143 25.0453 22.3685 25.1827 22.7358C25.4425 23.4301 25.5273 25.1672 25.3595 26.3565C25.2312 27.2652 25.0758 27.6072 24.7674 27.6594C24.358 27.7285 23.8042 27.2825 23.2518 26.4387C22.7669 25.698 21.5746 23.3858 21.1604 22.3828C21.0784 22.1844 20.947 21.9632 20.8623 21.8813C20.5619 21.5904 20.5525 21.5893 18.4742 21.5896C17.3508 21.5897 16.5171 21.609 16.4159 21.637C16.158 21.7087 16 21.8915 16 22.1184C16 22.5688 17.6935 25.9881 18.8721 27.9174C19.562 29.0468 20.5935 30.4854 21.4263 31.48C22.3843 32.6239 24.1029 33.8057 25.4688 34.2598C26.4014 34.5698 26.609 34.5965 28.0938 34.5968L29.4297 34.5971L29.6406 34.4791C29.9434 34.3096 30.0114 34.1339 30.064 33.3855C30.0879 33.0465 30.137 32.6604 30.1732 32.5276C30.3333 31.9406 30.722 31.4799 31.0572 31.4799C31.4331 31.4799 31.75 31.7284 32.6715 32.7457C33.761 33.9484 34.0904 34.2287 34.7266 34.4944C35.1519 34.672 35.454 34.6863 37.6328 34.6319C39.177 34.5933 39.3382 34.5817 39.5312 34.4943C39.6473 34.4419 39.7949 34.3416 39.8594 34.2716C39.9592 34.1632 39.976 34.1013 39.9728 33.8551C39.9639 33.1685 39.3275 32.311 37.4571 30.4657C36.236 29.2609 36.1094 29.0956 36.1094 28.7058C36.1094 28.3046 36.2787 28.042 38.0081 25.7613C39.3241 24.0258 40 22.8048 40 22.1632C40 21.9127 39.8338 21.7194 39.551 21.6409C39.3448 21.5836 36.4012 21.5693 35.3363 21.6204C34.4952 21.6607 34.4988 21.6578 34.0939 22.6074C33.527 23.937 33.0283 24.8618 32.2385 26.0478C31.7576 26.77 31.1785 27.4229 30.8802 27.5791C30.5785 27.7372 30.221 27.4753 30.1007 27.008C30.0331 26.7459 30.0229 25.7991 30.0625 23.4643C30.0838 22.2054 30.0782 22.0593 29.9996 21.834C29.7561 21.1351 29.4182 21.0275 27.3906 21.0032C26.6559 20.9944 25.8965 21.0042 25.7031 21.0249Z" fill="white"/>
</svg>
