<svg width="24" height="24" viewBox="0 0 24 24" fill="none" xmlns="http://www.w3.org/2000/svg">
<path d="M6 10L9 5" stroke="#9745FF" stroke-width="2" stroke-linecap="round" stroke-linejoin="round"/>
<path fill-rule="evenodd" clip-rule="evenodd" d="M3.87407 17.4339L2.27031 10.2169C2.13153 9.59242 2.60675 9 3.2465 9H20.7533C21.393 9 21.8682 9.59242 21.7295 10.2169L20.1257 17.4339C19.9223 18.3489 19.1107 19 18.1733 19H5.82645C4.88905 19 4.07742 18.3489 3.87407 17.4339ZM7.97026 11.7575C7.83631 11.2217 7.29338 10.8959 6.75758 11.0299C6.22179 11.1638 5.89603 11.7067 6.02998 12.2425L7.02998 16.2425C7.16393 16.7783 7.70686 17.1041 8.24266 16.9701C8.77845 16.8362 9.10421 16.2933 8.97026 15.7575L7.97026 11.7575ZM17.2427 11.0299C17.7785 11.1638 18.1042 11.7067 17.9703 12.2425L16.9703 16.2425C16.8363 16.7783 16.2934 17.1041 15.7576 16.9701C15.2218 16.8362 14.896 16.2933 15.03 15.7575L16.03 11.7575C16.1639 11.2217 16.7069 10.8959 17.2427 11.0299ZM12.9999 12C12.9999 11.4477 12.5522 11 11.9999 11C11.4476 11 10.9999 11.4477 10.9999 12V16C10.9999 16.5523 11.4476 17 11.9999 17C12.5522 17 12.9999 16.5523 12.9999 16V12Z" fill="#9745FF"/>
<path d="M18 10L15 5" stroke="#9745FF" stroke-width="2" stroke-linecap="round" stroke-linejoin="round"/>
</svg>
