<svg width="28" height="28" viewBox="0 0 28 28" fill="none" xmlns="http://www.w3.org/2000/svg">
<g clip-path="url(#clip0_2104_493)">
<path d="M23.7186 4.98717C21.8824 4.128 19.9397 3.51752 17.9421 3.17188C17.6933 3.62173 17.4025 4.2268 17.2021 4.70816C15.0482 4.3843 12.9142 4.3843 10.8 4.70816C10.5996 4.22691 10.3024 3.62173 10.0512 3.17188C8.05163 3.51768 6.10734 4.12971 4.27021 4.99166C0.614461 10.5161 -0.376586 15.9031 0.118883 21.2139C2.54362 23.0246 4.89343 24.1246 7.20365 24.8444C7.7778 24.0549 8.28533 23.2189 8.72101 22.3453C7.89154 22.0295 7.0919 21.6404 6.3316 21.1824C6.53168 21.0341 6.72705 20.8796 6.91741 20.719C11.5245 22.8739 16.5304 22.8739 21.0826 20.719C21.2738 20.8785 21.4691 21.0331 21.6683 21.1824C20.9068 21.6416 20.1056 22.0315 19.2745 22.3476C19.7126 23.2248 20.2193 24.0615 20.7919 24.8466C23.1043 24.1269 25.4563 23.0269 27.881 21.2139C28.4624 15.0574 26.8879 9.71983 23.7186 4.98717ZM9.34871 17.9479C7.96566 17.9479 6.83145 16.6567 6.83145 15.0845C6.83145 13.5122 7.94149 12.2188 9.34871 12.2188C10.756 12.2188 11.8901 13.5099 11.866 15.0845C11.8682 16.6567 10.756 17.9479 9.34871 17.9479ZM18.6512 17.9479C17.2681 17.9479 16.134 16.6567 16.134 15.0845C16.134 13.5122 17.2439 12.2188 18.6512 12.2188C20.0585 12.2188 21.1926 13.5099 21.1684 15.0845C21.1684 16.6567 20.0585 17.9479 18.6512 17.9479Z" fill="#5865F2"/>
</g>
<defs>
<clipPath id="clip0_2104_493">
<rect width="28" height="28" fill="white"/>
</clipPath>
</defs>
</svg>
