<svg width="24" height="24" viewBox="0 0 24 24" fill="none" xmlns="http://www.w3.org/2000/svg">
<path d="M20.0002 2L19.0002 2L19.0002 15L20.0002 15C20.5307 15 21.0394 14.7893 21.4145 14.4142C21.7895 14.0391 22.0002 13.5304 22.0002 13L22.0002 4C22.0002 3.46957 21.7895 2.96086 21.4145 2.58579C21.0394 2.21071 20.5307 2 20.0002 2ZM4.00024 15L11.0002 15L9.87824 18.368C9.77813 18.6686 9.75086 18.9887 9.79867 19.3018C9.84649 19.615 9.96802 19.9124 10.1533 20.1694C10.3385 20.4264 10.5822 20.6358 10.8642 20.7802C11.1462 20.9246 11.4584 20.9999 11.7752 21L12.0002 21L17.0002 15.562L17.0002 2L6.00024 2L2.08824 10.596L2.00024 11L2.00024 13C2.00024 13.5304 2.21096 14.0391 2.58603 14.4142C2.9611 14.7893 3.46981 15 4.00024 15Z" fill="#EF3D47"/>
</svg>
