<svg width="24" height="25" viewBox="0 0 24 25" fill="none" xmlns="http://www.w3.org/2000/svg">
<path d="M12.0391 3.5C17.5316 3.5 22 7.2848 22 11.9375C22 13.9029 21.1898 15.8074 19.7153 17.3169C19.4234 18.4722 19.7776 19.696 20.6565 20.5398C21.024 20.8926 20.7641 21.5 20.2422 21.5C18.5725 21.5 16.9629 20.8722 15.767 19.7647C14.5836 20.1702 13.3317 20.375 12.0391 20.375C6.54649 20.375 2 16.5902 2 11.9375C2 7.2848 6.54649 3.5 12.0391 3.5ZM16.6485 13.625C17.6177 13.625 18.4062 12.868 18.4062 11.9375C18.4062 11.007 17.6177 10.25 16.6485 10.25C15.6791 10.25 14.8906 11.007 14.8906 11.9375C14.8906 12.868 15.6791 13.625 16.6485 13.625ZM11.9609 13.625C12.9302 13.625 13.7188 12.868 13.7188 11.9375C13.7188 11.007 12.9302 10.25 11.9609 10.25C10.9916 10.25 10.2031 11.007 10.2031 11.9375C10.2031 12.868 10.9916 13.625 11.9609 13.625ZM7.27344 13.625C8.24274 13.625 9.03125 12.868 9.03125 11.9375C9.03125 11.007 8.24274 10.25 7.27344 10.25C6.30414 10.25 5.51562 11.007 5.51562 11.9375C5.51562 12.868 6.30414 13.625 7.27344 13.625Z" fill="white"/>
</svg>
