<svg width="112" height="108" viewBox="0 0 112 108" fill="none" xmlns="http://www.w3.org/2000/svg">
<g filter="url(#filter0_d_2129_1524)">
<path d="M70.0001 59.75C70.7292 57.9792 71.1251 56.0834 71.1251 54C71.1251 52.5 70.8959 51.0625 70.5001 49.7292C69.1459 50.0417 67.7292 50.2084 66.2501 50.2084C63.2209 50.2116 60.2352 49.4865 57.5449 48.0942C54.8546 46.702 52.5385 44.6833 50.7917 42.2084C48.9232 46.7296 45.3983 50.3663 40.9376 52.375C40.8542 52.8959 40.8542 53.4584 40.8542 54C40.8542 55.989 41.246 57.9585 42.0072 59.7961C42.7683 61.6337 43.8839 63.3033 45.2904 64.7098C48.1308 67.5502 51.9832 69.1459 56.0001 69.1459C58.1876 69.1459 60.2917 68.6667 62.1876 67.8125C63.3751 70.0834 63.9167 71.2084 63.8751 71.2084C60.4584 72.3542 57.8126 72.9167 56.0001 72.9167C50.9584 72.9167 46.1459 70.9375 42.6042 67.375C40.4501 65.2275 38.8488 62.5896 37.9376 59.6875H35.1667V50.2084H37.4376C38.1256 46.8594 39.7074 43.7592 42.0151 41.2367C44.3228 38.7141 47.2703 36.8634 50.5449 35.8808C53.8196 34.8982 57.2991 34.8204 60.6144 35.6557C63.9296 36.491 66.957 38.2081 69.3751 40.625C72.0005 43.2401 73.7913 46.5752 74.5209 50.2084H76.8334V59.6875H76.7084L69.2917 66.5L58.2501 65.25V61.7709H68.3126L70.0001 59.75ZM50.3126 53.5209C50.9376 53.5209 51.5417 53.7709 51.9792 54.2292C52.4189 54.6725 52.6656 55.2715 52.6656 55.8959C52.6656 56.5202 52.4189 57.1193 51.9792 57.5625C51.5417 58 50.9376 58.25 50.3126 58.25C49.0001 58.25 47.9376 57.2084 47.9376 55.8959C47.9376 54.5834 49.0001 53.5209 50.3126 53.5209ZM61.6667 53.5209C62.9792 53.5209 64.0209 54.5834 64.0209 55.8959C64.0209 57.2084 62.9792 58.25 61.6667 58.25C60.3542 58.25 59.2917 57.2084 59.2917 55.8959C59.2917 55.266 59.542 54.6619 59.9874 54.2165C60.4328 53.7711 61.0369 53.5209 61.6667 53.5209Z" fill="#9745FF"/>
</g>
<defs>
<filter id="filter0_d_2129_1524" x="0.166748" y="0.0817871" width="111.667" height="107.835" filterUnits="userSpaceOnUse" color-interpolation-filters="sRGB">
<feFlood flood-opacity="0" result="BackgroundImageFix"/>
<feColorMatrix in="SourceAlpha" type="matrix" values="0 0 0 0 0 0 0 0 0 0 0 0 0 0 0 0 0 0 127 0" result="hardAlpha"/>
<feOffset/>
<feGaussianBlur stdDeviation="17.5"/>
<feComposite in2="hardAlpha" operator="out"/>
<feColorMatrix type="matrix" values="0 0 0 0 0.592157 0 0 0 0 0.270588 0 0 0 0 1 0 0 0 0.75 0"/>
<feBlend mode="normal" in2="BackgroundImageFix" result="effect1_dropShadow_2129_1524"/>
<feBlend mode="normal" in="SourceGraphic" in2="effect1_dropShadow_2129_1524" result="shape"/>
</filter>
</defs>
</svg>
