<svg width="20" height="20" viewBox="0 0 20 20" fill="none" xmlns="http://www.w3.org/2000/svg">
<path d="M5 8.33335L7.5 4.16669" stroke="white" stroke-width="2" stroke-linecap="round" stroke-linejoin="round"/>
<path fill-rule="evenodd" clip-rule="evenodd" d="M3.17045 14.2672L1.93706 8.71693C1.79828 8.09242 2.2735 7.5 2.91325 7.5H17.0867C17.7264 7.5 18.2017 8.09242 18.0629 8.71693L16.8295 14.2672C16.6261 15.1823 15.8145 15.8333 14.8771 15.8333H5.12283C4.18543 15.8333 3.3738 15.1823 3.17045 14.2672ZM6.64195 9.79788C6.53032 9.35138 6.07788 9.07992 5.63138 9.19154C5.18489 9.30317 4.91342 9.75561 5.02504 10.2021L5.85838 13.5354C5.97 13.9819 6.42245 14.2534 6.86894 14.1418C7.31544 14.0302 7.58691 13.5777 7.47528 13.1312L6.64195 9.79788ZM14.3689 9.19154C14.8154 9.30317 15.0869 9.75561 14.9753 10.2021L14.1419 13.5354C14.0303 13.9819 13.5779 14.2534 13.1314 14.1418C12.6849 14.0302 12.4134 13.5777 12.525 13.1312L13.3584 9.79788C13.47 9.35138 13.9224 9.07992 14.3689 9.19154ZM10.8333 10C10.8333 9.53976 10.4602 9.16667 9.99997 9.16667C9.53973 9.16667 9.16663 9.53976 9.16663 10V13.3333C9.16663 13.7936 9.53973 14.1667 9.99997 14.1667C10.4602 14.1667 10.8333 13.7936 10.8333 13.3333V10Z" fill="white"/>
<path d="M15 8.33335L12.5 4.16669" stroke="white" stroke-width="2" stroke-linecap="round" stroke-linejoin="round"/>
</svg>
