<svg width="112" height="100" viewBox="0 0 112 100" fill="none" xmlns="http://www.w3.org/2000/svg">
<g filter="url(#filter0_d_2129_1860)">
<path d="M62.2459 35.4167C66.0716 35.4149 69.7448 36.9164 72.4737 39.5976C75.2026 42.2788 76.7687 45.9249 76.8342 49.75C76.8998 53.5752 75.4597 57.2729 72.8244 60.046C70.189 62.8192 66.5694 64.4458 62.7459 64.5751L62.2459 64.5834H49.7543C45.9286 64.5853 42.2554 63.0838 39.5265 60.4026C36.7976 57.7214 35.2316 54.0752 35.166 50.2501C35.1004 46.425 36.5405 42.7273 39.1759 39.9541C41.8112 37.1809 45.4308 35.5544 49.2543 35.4251L49.7522 35.4167H62.2459ZM61.7293 51.0418C61.0386 51.0418 60.3762 51.3161 59.8878 51.8045C59.3995 52.2929 59.1251 52.9552 59.1251 53.6459C59.1251 54.3366 59.3995 54.999 59.8878 55.4873C60.3762 55.9757 61.0386 56.2501 61.7293 56.2501C62.4199 56.2501 63.0823 55.9757 63.5707 55.4873C64.0591 54.999 64.3334 54.3366 64.3334 53.6459C64.3334 52.9552 64.0591 52.2929 63.5707 51.8045C63.0823 51.3161 62.4199 51.0418 61.7293 51.0418ZM47.6668 43.7501C47.2892 43.7501 46.9244 43.8868 46.6398 44.135C46.3553 44.3832 46.1702 44.726 46.1189 45.1001L46.1043 45.3126V48.4334H42.9793C42.5806 48.4294 42.1954 48.5779 41.9026 48.8486C41.6099 49.1192 41.4317 49.4916 41.4045 49.8894C41.3774 50.2872 41.5033 50.6803 41.7566 50.9883C42.0098 51.2963 42.3712 51.4957 42.7668 51.5459L42.9793 51.5605L46.1043 51.5584V54.6876C46.1044 55.0835 46.2548 55.4645 46.525 55.7538C46.7953 56.0431 47.1653 56.219 47.5603 56.246C47.9552 56.273 48.3457 56.149 48.6528 55.8992C48.9599 55.6494 49.1607 55.2923 49.2147 54.9001L49.2293 54.6876V51.5584H52.3543C52.7477 51.5547 53.1252 51.4028 53.4115 51.1329C53.6977 50.863 53.8717 50.4951 53.8985 50.1026C53.9253 49.71 53.8031 49.3219 53.5562 49.0155C53.3094 48.7092 52.956 48.5073 52.5668 48.4501L52.3543 48.4355L49.2293 48.4334V45.3126C49.2293 44.8982 49.0646 44.5008 48.7716 44.2077C48.4786 43.9147 48.0812 43.7501 47.6668 43.7501ZM65.8959 43.7501C65.2053 43.7501 64.5429 44.0245 64.0545 44.5128C63.5661 45.0012 63.2918 45.6636 63.2918 46.3543C63.2918 47.0449 63.5661 47.7073 64.0545 48.1957C64.5429 48.6841 65.2053 48.9584 65.8959 48.9584C66.5866 48.9584 67.249 48.6841 67.7374 48.1957C68.2257 47.7073 68.5001 47.0449 68.5001 46.3543C68.5001 45.6636 68.2257 45.0012 67.7374 44.5128C67.249 44.0245 66.5866 43.7501 65.8959 43.7501Z" fill="#9745FF"/>
</g>
<defs>
<filter id="filter0_d_2129_1860" x="0.163818" y="0.416748" width="111.673" height="99.1667" filterUnits="userSpaceOnUse" color-interpolation-filters="sRGB">
<feFlood flood-opacity="0" result="BackgroundImageFix"/>
<feColorMatrix in="SourceAlpha" type="matrix" values="0 0 0 0 0 0 0 0 0 0 0 0 0 0 0 0 0 0 127 0" result="hardAlpha"/>
<feOffset/>
<feGaussianBlur stdDeviation="17.5"/>
<feComposite in2="hardAlpha" operator="out"/>
<feColorMatrix type="matrix" values="0 0 0 0 0.592157 0 0 0 0 0.270588 0 0 0 0 1 0 0 0 0.75 0"/>
<feBlend mode="normal" in2="BackgroundImageFix" result="effect1_dropShadow_2129_1860"/>
<feBlend mode="normal" in="SourceGraphic" in2="effect1_dropShadow_2129_1860" result="shape"/>
</filter>
</defs>
</svg>
