<svg width="20" height="20" viewBox="0 0 20 20" fill="none" xmlns="http://www.w3.org/2000/svg">
<path d="M3.47799 8.46626L6.43961 7.86603C6.71686 7.80984 6.95733 7.63886 7.10146 7.39545L8.43758 5.13889L9.13961 3.95325C9.52685 3.29924 10.4733 3.29924 10.8606 3.95325L12.8987 7.39545C13.0428 7.63886 13.2833 7.80984 13.5606 7.86603L16.5222 8.46626C17.3009 8.62407 17.5934 9.5832 17.0353 10.1487L14.5385 12.6788C14.306 12.9145 14.2051 13.25 14.2692 13.5748L14.8111 16.3203C14.9725 17.138 14.1215 17.7826 13.3781 17.406L10.452 15.9234C10.1679 15.7795 9.83223 15.7795 9.54812 15.9234L6.6221 17.406C5.87864 17.7826 5.02768 17.138 5.18906 16.3203L5.73092 13.5748C5.79504 13.25 5.6942 12.9145 5.46162 12.6788L2.96485 10.1487C2.40675 9.58321 2.69928 8.62407 3.47799 8.46626Z" fill="#46DF83"/>
</svg>
