<svg width="24" height="24" viewBox="0 0 24 24" fill="none" xmlns="http://www.w3.org/2000/svg">
<path d="M7.7 18C6.655 18 5.8 18.9 5.8 20C5.8 21.1 6.655 22 7.7 22C8.745 22 9.6 21.1 9.6 20C9.6 18.9 8.745 18 7.7 18ZM2 2V4H3.9L7.32 11.6L5.99 14C5.895 14.3 5.8 14.7 5.8 15C5.8 16.1 6.655 17 7.7 17H19.1V15H8.08C7.985 15 7.89 14.9 7.89 14.8V14.7L8.745 13H15.775C16.535 13 17.105 12.6 17.39 12L20.81 5.5C21 5.3 21 5.2 21 5C21 4.4 20.62 4 20.05 4H5.99L5.135 2H2ZM17.2 18C16.155 18 15.3 18.9 15.3 20C15.3 21.1 16.155 22 17.2 22C18.245 22 19.1 21.1 19.1 20C19.1 18.9 18.245 18 17.2 18Z" fill="white"/>
</svg>
