<svg width="24" height="24" viewBox="0 0 24 24" fill="none" xmlns="http://www.w3.org/2000/svg">
<path d="M10 6V5C10 4.33333 10.4 3 12 3C13.6 3 14 4.33333 14 5V6" stroke="white" stroke-width="2"/>
<path fill-rule="evenodd" clip-rule="evenodd" d="M7 5C5.34315 5 4 6.34315 4 8V19C4 20.6569 5.34315 22 7 22H17C18.6569 22 20 20.6569 20 19V8C20 6.34315 18.6569 5 17 5H7ZM8 16C7.44772 16 7 16.4477 7 17C7 17.5523 7.44772 18 8 18H11C11.5523 18 12 17.5523 12 17C12 16.4477 11.5523 16 11 16H8ZM7 13C7 12.4477 7.44772 12 8 12H16C16.5523 12 17 12.4477 17 13C17 13.5523 16.5523 14 16 14H8C7.44772 14 7 13.5523 7 13ZM8 8C7.44772 8 7 8.44772 7 9C7 9.55228 7.44772 10 8 10H16C16.5523 10 17 9.55228 17 9C17 8.44772 16.5523 8 16 8H8Z" fill="white"/>
</svg>
