<svg width="24" height="25" viewBox="0 0 24 25" fill="none" xmlns="http://www.w3.org/2000/svg">
<g clip-path="url(#clip0_1841_5750)">
<path d="M11.9431 0.683007C13.8151 0.683007 15.5971 1.11201 17.1951 1.87901C17.4461 1.99201 17.6981 2.12701 17.9481 2.26301L16.8521 3.23301L15.2091 1.54101L12.3771 4.02401L10.7101 2.24001L5.50307 6.86801L8.83707 10.503L7.53507 11.631L10.8251 15.266L9.52307 16.394L14.2271 21.564L17.0121 19.035L19.4331 21.745C18.9531 22.106 18.4281 22.468 17.8581 22.784C16.0579 23.7916 14.029 24.3198 11.9661 24.318C5.36607 24.318 7.3649e-05 19.013 7.3649e-05 12.49C-0.0229264 6.01001 5.34407 0.682007 11.9431 0.682007M9.75007 11.766L12.6051 9.23801L15.1631 12.059L12.3081 14.588L9.75007 11.766ZM11.7831 16.642L14.6151 14.092L17.1951 16.913L14.3401 19.442L11.7831 16.642ZM7.72007 6.96001L10.5741 4.43101L13.1311 7.25301L10.2771 9.78101L7.72007 6.96001ZM12.9481 5.60501L15.0721 3.70901L16.9911 5.80801L14.8671 7.72701L12.9481 5.60501ZM16.7401 14.296L18.8631 12.4L20.7811 14.521L18.6571 16.419L16.7401 14.296ZM18.6121 18.563L20.7361 16.666L22.6531 18.766L20.5301 20.684L18.6121 18.563ZM19.4801 8.81001L20.8951 7.54601L22.1741 8.94601L20.7581 10.21L19.4801 8.81001ZM17.6531 4.63401L19.0691 3.34801L20.3491 4.77001L18.9311 6.03401L17.6531 4.63401ZM21.2831 12.987L22.6991 11.723L24.0011 13.123L22.5631 14.387L21.2831 12.987ZM14.9131 9.84901L17.0371 7.95301L18.9551 10.052L16.8311 11.949L14.9131 9.84901Z" fill="white"/>
</g>
<defs>
<clipPath id="clip0_1841_5750">
<rect width="24" height="24" fill="white" transform="translate(0 0.5)"/>
</clipPath>
</defs>
</svg>
