<svg width="94" height="94" viewBox="0 0 94 94" fill="none" xmlns="http://www.w3.org/2000/svg">
<rect x="27.416" y="23.5" width="47" height="47" fill="white"/>
<path d="M37.6 62.1071L61.993 47L37.6 31.8929V62.1071ZM91.932 22.6775C92.543 25.0443 92.966 28.2168 93.248 32.2454C93.577 36.2739 93.718 39.7486 93.718 42.77L94 47C94 58.0282 93.248 66.1357 91.932 71.3225C90.757 75.8546 88.031 78.7754 83.801 80.0343C81.592 80.6889 77.55 81.1421 71.346 81.4443C65.236 81.7968 59.643 81.9479 54.473 81.9479L47 82.25C27.307 82.25 15.04 81.4443 10.199 80.0343C5.969 78.7754 3.243 75.8546 2.068 71.3225C1.457 68.9557 1.034 65.7832 0.752 61.7546C0.423 57.7261 0.282 54.2514 0.282 51.23L0 47C0 35.9718 0.752 27.8643 2.068 22.6775C3.243 18.1454 5.969 15.2246 10.199 13.9657C12.408 13.3111 16.45 12.8579 22.654 12.5557C28.764 12.2032 34.357 12.0521 39.527 12.0521L47 11.75C66.693 11.75 78.96 12.5557 83.801 13.9657C88.031 15.2246 90.757 18.1454 91.932 22.6775Z" fill="#FF0000"/>
</svg>
