<svg width="24" height="24" viewBox="0 0 24 24" fill="none" xmlns="http://www.w3.org/2000/svg">
<g clip-path="url(#clip0_2171_8945)">
<path d="M20.3302 4.27472C18.7563 3.53829 17.0912 3.01502 15.3789 2.71875C15.1656 3.10434 14.9165 3.62297 14.7446 4.03556C12.8985 3.75797 11.0693 3.75797 9.25715 4.03556C9.0854 3.62306 8.83059 3.10434 8.61534 2.71875C6.90139 3.01516 5.23486 3.53976 3.66018 4.27856C0.526681 9.01378 -0.322788 13.6312 0.1019 18.1834C2.18024 19.7354 4.19437 20.6782 6.17456 21.2952C6.66668 20.6185 7.10171 19.902 7.47515 19.1531C6.76417 18.8825 6.07877 18.5489 5.42709 18.1564C5.59858 18.0293 5.76604 17.8968 5.92921 17.7592C9.87815 19.6062 14.1689 19.6062 18.0708 17.7592C18.2347 17.8959 18.4021 18.0283 18.5728 18.1564C17.9201 18.5499 17.2334 18.8842 16.521 19.1551C16.8966 19.907 17.3308 20.6242 17.8216 21.2971C19.8036 20.6802 21.8196 19.7374 23.898 18.1834C24.3964 12.9064 23.0467 8.33128 20.3302 4.27472ZM8.01318 15.3839C6.82771 15.3839 5.85553 14.2772 5.85553 12.9295C5.85553 11.5819 6.80699 10.4733 8.01318 10.4733C9.21946 10.4733 10.1916 11.5799 10.1708 12.9295C10.1727 14.2772 9.21946 15.3839 8.01318 15.3839ZM15.9867 15.3839C14.8012 15.3839 13.8291 14.2772 13.8291 12.9295C13.8291 11.5819 14.7805 10.4733 15.9867 10.4733C17.193 10.4733 18.1651 11.5799 18.1444 12.9295C18.1444 14.2772 17.193 15.3839 15.9867 15.3839Z" fill="#9745FF"/>
</g>
<defs>
<clipPath id="clip0_2171_8945">
<rect width="24" height="24" fill="white"/>
</clipPath>
</defs>
</svg>
