<svg width="120" height="110" viewBox="0 0 120 110" fill="none" xmlns="http://www.w3.org/2000/svg">
<g filter="url(#filter0_d_2129_7611)">
<path d="M77.3547 38.9057C74.0756 37.3714 70.6067 36.2813 67.0394 35.6641C66.5951 36.4674 66.076 37.5479 65.718 38.4074C61.8719 37.8291 58.0611 37.8291 54.2857 38.4074C53.9279 37.548 53.3971 36.4674 52.9486 35.6641C49.3779 36.2816 45.906 37.3745 42.6254 38.9137C36.0973 48.7787 34.3275 58.3984 35.2123 67.882C39.5422 71.1154 43.7383 73.0797 47.8637 74.365C48.8889 72.9551 49.7952 71.4624 50.5732 69.9023C49.092 69.3384 47.6641 68.6435 46.3064 67.8258C46.6637 67.561 47.0126 67.285 47.3525 66.9982C55.5795 70.8463 64.5185 70.8463 72.6474 66.9982C72.9889 67.2831 73.3376 67.559 73.6933 67.8258C72.3335 68.6456 70.9029 69.342 69.4187 69.9064C70.2012 71.4729 71.1058 72.967 72.1283 74.3689C76.2576 73.0838 80.4576 71.1195 84.7875 67.882C85.8258 56.8883 83.014 47.3568 77.3547 38.9057ZM51.6941 62.0498C49.2244 62.0498 47.199 59.7441 47.199 56.9365C47.199 54.1289 49.1812 51.8193 51.6941 51.8193C54.2072 51.8193 56.2324 54.1248 56.1892 56.9365C56.1931 59.7441 54.2072 62.0498 51.6941 62.0498ZM68.3056 62.0498C65.8359 62.0498 63.8107 59.7441 63.8107 56.9365C63.8107 54.1289 65.7928 51.8193 68.3056 51.8193C70.8187 51.8193 72.8439 54.1248 72.8008 56.9365C72.8008 59.7441 70.8187 62.0498 68.3056 62.0498Z" fill="#9745FF"/>
</g>
<defs>
<filter id="filter0_d_2129_7611" x="0" y="0.664062" width="120" height="108.705" filterUnits="userSpaceOnUse" color-interpolation-filters="sRGB">
<feFlood flood-opacity="0" result="BackgroundImageFix"/>
<feColorMatrix in="SourceAlpha" type="matrix" values="0 0 0 0 0 0 0 0 0 0 0 0 0 0 0 0 0 0 127 0" result="hardAlpha"/>
<feOffset/>
<feGaussianBlur stdDeviation="17.5"/>
<feComposite in2="hardAlpha" operator="out"/>
<feColorMatrix type="matrix" values="0 0 0 0 0.592157 0 0 0 0 0.270588 0 0 0 0 1 0 0 0 0.75 0"/>
<feBlend mode="normal" in2="BackgroundImageFix" result="effect1_dropShadow_2129_7611"/>
<feBlend mode="normal" in="SourceGraphic" in2="effect1_dropShadow_2129_7611" result="shape"/>
</filter>
</defs>
</svg>
