<svg width="104" height="112" viewBox="0 0 104 112" fill="none" xmlns="http://www.w3.org/2000/svg">
<g filter="url(#filter0_d_2129_7693)">
<path fill-rule="evenodd" clip-rule="evenodd" d="M56.6876 36.2083C56.6876 36.0702 56.6327 35.9377 56.535 35.84C56.4374 35.7424 56.3049 35.6875 56.1667 35.6875H41.5834C40.0639 35.6875 38.6067 36.2911 37.5323 37.3655C36.4579 38.44 35.8542 39.8972 35.8542 41.4167V70.5833C35.8542 72.1028 36.4579 73.56 37.5323 74.6345C38.6067 75.7089 40.0639 76.3125 41.5834 76.3125H62.4167C63.9362 76.3125 65.3935 75.7089 66.4679 74.6345C67.5423 73.56 68.1459 72.1028 68.1459 70.5833V50.0563C68.1459 49.9181 68.091 49.7856 67.9934 49.688C67.8957 49.5903 67.7632 49.5354 67.6251 49.5354H58.2501C57.8357 49.5354 57.4383 49.3708 57.1452 49.0778C56.8522 48.7847 56.6876 48.3873 56.6876 47.9729V36.2083ZM58.2501 56.5208C58.6645 56.5208 59.0619 56.6855 59.3549 56.9785C59.648 57.2715 59.8126 57.6689 59.8126 58.0833C59.8126 58.4977 59.648 58.8952 59.3549 59.1882C59.0619 59.4812 58.6645 59.6458 58.2501 59.6458H45.7501C45.3357 59.6458 44.9383 59.4812 44.6452 59.1882C44.3522 58.8952 44.1876 58.4977 44.1876 58.0833C44.1876 57.6689 44.3522 57.2715 44.6452 56.9785C44.9383 56.6855 45.3357 56.5208 45.7501 56.5208H58.2501ZM58.2501 64.8542C58.6645 64.8542 59.0619 65.0188 59.3549 65.3118C59.648 65.6048 59.8126 66.0023 59.8126 66.4167C59.8126 66.8311 59.648 67.2285 59.3549 67.5215C59.0619 67.8145 58.6645 67.9792 58.2501 67.9792H45.7501C45.3357 67.9792 44.9383 67.8145 44.6452 67.5215C44.3522 67.2285 44.1876 66.8311 44.1876 66.4167C44.1876 66.0023 44.3522 65.6048 44.6452 65.3118C44.9383 65.0188 45.3357 64.8542 45.7501 64.8542H58.2501Z" fill="#9745FF"/>
</g>
<path d="M59.8125 36.8833C59.8125 36.5 60.2146 36.2562 60.5125 36.4958C60.7646 36.7 60.9917 36.9375 61.1854 37.2083L67.4625 45.952C67.6042 46.152 67.45 46.4104 67.2042 46.4104H60.3333C60.1952 46.4104 60.0627 46.3555 59.965 46.2578C59.8674 46.1601 59.8125 46.0277 59.8125 45.8895V36.8833Z" fill="#9745FF"/>
<defs>
<filter id="filter0_d_2129_7693" x="0.854248" y="0.6875" width="102.292" height="110.625" filterUnits="userSpaceOnUse" color-interpolation-filters="sRGB">
<feFlood flood-opacity="0" result="BackgroundImageFix"/>
<feColorMatrix in="SourceAlpha" type="matrix" values="0 0 0 0 0 0 0 0 0 0 0 0 0 0 0 0 0 0 127 0" result="hardAlpha"/>
<feOffset/>
<feGaussianBlur stdDeviation="17.5"/>
<feComposite in2="hardAlpha" operator="out"/>
<feColorMatrix type="matrix" values="0 0 0 0 0.592157 0 0 0 0 0.270588 0 0 0 0 1 0 0 0 0.75 0"/>
<feBlend mode="normal" in2="BackgroundImageFix" result="effect1_dropShadow_2129_7693"/>
<feBlend mode="normal" in="SourceGraphic" in2="effect1_dropShadow_2129_7693" result="shape"/>
</filter>
</defs>
</svg>
