<svg width="28" height="28" viewBox="0 0 28 28" fill="none" xmlns="http://www.w3.org/2000/svg">
<g clip-path="url(#clip0_2126_523)">
<circle cx="14" cy="14" r="14" fill="#175A19"/>
<path d="M2.8 0H25.2C25.9426 0 26.6548 0.294999 27.1799 0.820101C27.705 1.3452 28 2.05739 28 2.8V25.2C28 25.9426 27.705 26.6548 27.1799 27.1799C26.6548 27.705 25.9426 28 25.2 28H2.8C2.05739 28 1.3452 27.705 0.820101 27.1799C0.294999 26.6548 0 25.9426 0 25.2V2.8C0 2.05739 0.294999 1.3452 0.820101 0.820101C1.3452 0.294999 2.05739 0 2.8 0ZM5.6 5.6V11.2H11.2V14H8.4V22.4H11.2V19.6H16.8V22.4H19.6V14H16.8V11.2H22.4V5.6H16.8V11.2H11.2V5.6H5.6Z" fill="#31C637"/>
</g>
<defs>
<clipPath id="clip0_2126_523">
<rect width="28" height="28" rx="6" fill="white"/>
</clipPath>
</defs>
</svg>
