<svg width="29" height="28" viewBox="0 0 29 28" fill="none" xmlns="http://www.w3.org/2000/svg">
<g clip-path="url(#clip0_2126_520)">
<path d="M28.0375 20.4653C27.4903 21.1734 26.1501 21.678 26.1501 21.678L16.182 25.3511V22.6416L23.5181 19.9594C24.3504 19.6543 24.4777 19.2214 23.8019 18.9945C23.1261 18.7663 21.903 18.8315 21.0693 19.1392L16.182 20.9047V18.0948L16.4633 17.9957C16.4633 17.9957 17.876 17.4833 19.8615 17.2577C21.8482 17.0334 24.2804 17.289 26.1895 18.0309C28.3404 18.7285 28.5823 19.7573 28.0375 20.4653ZM17.1302 15.852V8.92692C17.1302 8.11327 16.9839 7.36482 16.2393 7.15359C15.6704 6.96582 15.3166 7.50825 15.3166 8.3206V25.6667L10.7564 24.1815V3.5C12.6947 3.86901 15.5202 4.74264 17.0386 5.26681C20.9013 6.6268 22.211 8.3206 22.211 12.1346C22.211 15.852 19.9735 17.2616 17.1302 15.8534M2.38817 22.3599C0.178705 21.721 -0.189114 20.391 0.817616 19.6256C1.74798 18.9189 3.33126 18.3869 3.33126 18.3869L9.87056 16.0007V18.7207L5.164 20.4484C4.3329 20.7535 4.20563 21.1864 4.88018 21.4133C5.55727 21.6415 6.78037 21.5763 7.61273 21.2698L9.87056 20.4301V22.8619L9.42001 22.9402C7.16218 23.3183 4.75799 23.1605 2.38817 22.3599Z" fill="#3977D5"/>
</g>
<defs>
<clipPath id="clip0_2126_520">
<rect width="28" height="28" fill="white" transform="translate(0.285645)"/>
</clipPath>
</defs>
</svg>
