<svg width="29" height="28" viewBox="0 0 29 28" fill="none" xmlns="http://www.w3.org/2000/svg">
<g clip-path="url(#clip0_2126_502)">
<circle cx="13.8455" cy="14.5833" r="12.25" fill="#212121"/>
<path d="M13.904 0.00983936C6.17748 0.299659 0.148771 6.79837 0.438586 14.5248C0.728422 22.2517 7.22712 28.28 14.9535 27.9902C22.6806 27.7003 28.7087 21.2022 28.4189 13.4752C28.1291 5.74939 21.6311 -0.279235 13.9038 0.0106126L13.904 0.00983936ZM21.0765 19.9472C20.8413 20.3675 20.3083 20.518 19.8878 20.2811C16.5278 18.398 12.3758 18.0986 7.54778 19.3939C7.3242 19.4537 7.08604 19.4222 6.88564 19.3065C6.68525 19.1907 6.53903 19.0001 6.47914 18.7765C6.44932 18.6659 6.44162 18.5504 6.45649 18.4368C6.47135 18.3231 6.50849 18.2135 6.56576 18.1143C6.62304 18.015 6.69934 17.928 6.79028 17.8582C6.88123 17.7885 6.98503 17.7374 7.09576 17.7078C12.3795 16.2903 16.9703 16.643 20.7426 18.7584C21.163 18.9953 21.3134 19.5267 21.0765 19.9472ZM22.646 16.0736C22.3494 16.5986 21.684 16.7858 21.1593 16.4893C17.3121 14.3189 11.5546 13.8645 7.15736 15.3815C6.58702 15.5774 5.9656 15.2752 5.7689 14.7058C5.57348 14.1355 5.87594 13.5151 6.44525 13.3182C11.4681 11.5859 17.8125 12.0958 22.2306 14.5876C22.7553 14.8842 22.9426 15.5495 22.646 16.0736ZM22.6442 12.1013C18.0348 9.59217 10.5864 9.62486 6.33049 11.0931C5.64704 11.3287 4.9013 10.9658 4.66596 10.2823C4.43049 9.59855 4.79295 8.85338 5.47693 8.61725C10.3624 6.93166 18.5885 6.91347 23.8952 9.80053C24.5323 10.1461 24.7661 10.9416 24.4202 11.5764C24.0761 12.2121 23.2785 12.4472 22.6449 12.1013L22.6442 12.1013Z" fill="#1ED760"/>
</g>
<defs>
<clipPath id="clip0_2126_502">
<rect width="28" height="28" fill="white" transform="translate(0.428711)"/>
</clipPath>
</defs>
</svg>
