<svg width="29" height="28" viewBox="0 0 29 28" fill="none" xmlns="http://www.w3.org/2000/svg">
<g clip-path="url(#clip0_2126_496)">
<path d="M28.7144 24.8889C28.7144 25.714 28.3866 26.5053 27.8031 27.0888C27.2197 27.6722 26.4284 28 25.6032 28H3.82547C3.00035 28 2.20903 27.6722 1.62558 27.0888C1.04213 26.5053 0.714355 25.714 0.714355 24.8889V3.11111C0.714355 2.28599 1.04213 1.49467 1.62558 0.911223C2.20903 0.327777 3.00035 0 3.82547 0H25.6032C26.4284 0 27.2197 0.327777 27.8031 0.911223C28.3866 1.49467 28.7144 2.28599 28.7144 3.11111V24.8889Z" fill="white"/>
<path d="M10.4054 21.5017C10.1814 21.5017 9.96983 21.4574 9.76605 21.392L9.76216 21.4076L6.90771 20.5816C7.4086 22.0422 8.77905 23.0992 10.4077 23.0992C12.4618 23.0992 14.1224 21.4379 14.1224 19.3846C14.1224 17.3312 12.4618 15.6691 10.4077 15.6691C9.52027 15.6691 8.71605 15.9942 8.07594 16.5146L10.8262 17.3095C10.8487 17.3149 10.8689 17.3235 10.8915 17.3281L10.9296 17.3406V17.3421C11.4299 17.4679 11.8669 17.7726 12.158 18.1985C12.4491 18.6244 12.5742 19.1422 12.5097 19.6541C12.4452 20.1659 12.1955 20.6365 11.8079 20.9769C11.4202 21.3173 10.9213 21.5039 10.4054 21.5017ZM20.0996 14.2326C21.3036 14.232 22.4581 13.7533 23.3094 12.9019C24.1607 12.0505 24.6391 10.8959 24.6395 9.69191C24.6389 8.48804 24.1604 7.33366 23.3091 6.4824C22.4578 5.63114 21.3035 5.15263 20.0996 5.15202C18.8957 5.15263 17.7414 5.63114 16.8901 6.4824C16.0388 7.33366 15.5603 8.48804 15.5597 9.69191C15.5601 10.8959 16.0385 12.0505 16.8898 12.9019C17.7411 13.7533 18.8956 14.232 20.0996 14.2326ZM20.0973 6.54035C20.5113 6.54009 20.9213 6.62139 21.3039 6.77959C21.6865 6.9378 22.0342 7.16981 22.3272 7.46239C22.6201 7.75496 22.8525 8.10237 23.0112 8.48478C23.1699 8.86719 23.2517 9.27711 23.2519 9.69113C23.2522 10.1051 23.1709 10.5152 23.0127 10.8978C22.8545 11.2804 22.6225 11.6281 22.3299 11.921C22.0373 12.2139 21.6899 12.4464 21.3075 12.6051C20.9251 12.7637 20.5152 12.8455 20.1012 12.8458C19.265 12.8463 18.4629 12.5146 17.8713 11.9238C17.2797 11.3329 16.947 10.5312 16.9465 9.69502C16.946 8.85886 17.2776 8.05675 17.8685 7.46513C18.4594 6.87352 19.2611 6.54087 20.0973 6.54035Z" fill="#36486A"/>
<path d="M25.6032 0H3.82547C3.00035 0 2.20903 0.327777 1.62558 0.911223C1.04213 1.49467 0.714355 2.28599 0.714355 3.11111V14.385L6.1798 15.9662C7.1808 14.7296 8.69124 13.9238 10.4062 13.9238C10.4607 13.9238 10.5112 13.9393 10.5649 13.9401L13.5796 9.77511C13.5796 9.74789 13.5757 9.71911 13.5757 9.69344C13.5754 8.40321 13.9577 7.14186 14.6743 6.06891C15.3909 4.99597 16.4096 4.15963 17.6015 3.66566C18.7934 3.1717 20.1051 3.04229 21.3706 3.29382C22.6361 3.54534 23.7985 4.1665 24.711 5.07872C25.6234 5.99095 26.2449 7.15328 26.4967 8.4187C26.7485 9.68412 26.6194 10.9958 26.1257 12.1879C25.632 13.3799 24.796 14.3988 23.7232 15.1156C22.6504 15.8325 21.3891 16.2151 20.0989 16.2151C20.0647 16.2151 20.0312 16.2104 19.9962 16.2097L15.8507 19.2204C15.8522 19.2749 15.867 19.3293 15.867 19.3846C15.8671 20.1017 15.7259 20.8118 15.4516 21.4744C15.1772 22.137 14.7749 22.739 14.2678 23.2461C13.7607 23.7532 13.1587 24.1555 12.4961 24.4299C11.8335 24.7043 11.1234 24.8454 10.4062 24.8453C7.61169 24.8453 5.33513 22.7399 5.0108 20.0324L0.714355 18.7896V24.8889C0.714355 25.714 1.04213 26.5053 1.62558 27.0888C2.20903 27.6722 3.00035 28 3.82547 28H25.6032C26.4284 28 27.2197 27.6722 27.8031 27.0888C28.3866 26.5053 28.7144 25.714 28.7144 24.8889V3.11111C28.7144 2.28599 28.3866 1.49467 27.8031 0.911223C27.2197 0.327777 26.4284 0 25.6032 0Z" fill="#36486A"/>
</g>
<defs>
<clipPath id="clip0_2126_496">
<rect x="0.714355" width="28" height="28" rx="6" fill="white"/>
</clipPath>
</defs>
</svg>
