<svg width="24" height="24" viewBox="0 0 24 24" fill="none" xmlns="http://www.w3.org/2000/svg">
<path d="M20.1139 13.8333C20.8594 14.6054 21.6482 15.332 22.3175 16.184C22.614 16.5608 22.8935 16.9505 23.1062 17.3888C23.41 18.0137 23.1357 18.6991 22.6081 18.7362L19.331 18.7355C18.4847 18.8098 17.8111 18.4478 17.2433 17.8343C16.79 17.3454 16.3695 16.8232 15.9329 16.3175C15.7545 16.1101 15.5667 15.9147 15.3428 15.761C14.896 15.4528 14.5079 15.5472 14.2519 16.0421C13.9912 16.5455 13.9315 17.1035 13.9067 17.6639C13.871 18.4832 13.638 18.6973 12.8626 18.7359C11.206 18.8181 9.63405 18.5516 8.17305 17.666C6.88425 16.8849 5.8867 15.7825 5.01744 14.5343C3.32474 12.101 2.02838 9.43042 0.863594 6.68315C0.60144 6.06443 0.793229 5.73338 1.43698 5.72055C2.50654 5.69869 3.5761 5.70146 4.64565 5.71951C5.08093 5.72679 5.36893 5.99086 5.53618 6.42637C6.11416 7.9341 6.82272 9.3687 7.7106 10.6991C7.94722 11.0534 8.1888 11.4067 8.53275 11.6569C8.9124 11.9331 9.20175 11.8418 9.38077 11.3924C9.4953 11.1068 9.54472 10.8015 9.56955 10.4954C9.65467 9.44708 9.6648 8.3991 9.51757 7.35496C9.42592 6.70154 9.07935 6.27958 8.46502 6.15605C8.15212 6.09323 8.19795 5.9704 8.35012 5.78093C8.61427 5.45335 8.8617 5.2507 9.35617 5.2507L13.0587 5.25C13.6423 5.37145 13.7731 5.64906 13.8523 6.27229L13.8556 10.6349C13.8487 10.876 13.9699 11.591 14.3783 11.7488C14.7056 11.8633 14.9216 11.585 15.1173 11.3653C16.0052 10.3664 16.6378 9.1872 17.2044 7.96673C17.4544 7.42853 17.6701 6.87158 17.8795 6.31359C18.0353 5.90099 18.2776 5.69799 18.7168 5.70493L22.2821 5.70944C22.3872 5.70944 22.4939 5.71049 22.5979 5.72957C23.1988 5.83853 23.3635 6.11267 23.1775 6.73417C22.885 7.71068 22.3165 8.52405 21.7608 9.33952C21.1651 10.2126 20.5299 11.0552 19.9401 11.932C19.3981 12.7337 19.441 13.1372 20.1139 13.8333Z" fill="#9745FF"/>
</svg>
