<svg width="29" height="28" viewBox="0 0 29 28" fill="none" xmlns="http://www.w3.org/2000/svg">
<g clip-path="url(#clip0_2126_516)">
<circle cx="14.5715" cy="14" r="14" fill="white"/>
<path d="M5.35954 24.5392C7.9073 26.7744 11.1822 28.0048 14.5715 28C17.963 28.0051 21.2402 26.7748 23.7905 24.5392C25.9801 22.3076 18.7547 14.378 14.5715 11.2182C10.3925 14.378 3.16154 22.3076 5.35674 24.5392M18.3767 7.73219C21.2929 11.186 27.1071 19.7638 25.4649 22.7962C27.4798 20.3089 28.5768 17.2038 28.5715 14.0028C28.5741 12.1494 28.207 10.3141 27.4919 8.60424C26.7767 6.89438 25.7278 5.34428 24.4065 4.0446C24.4065 4.0446 24.3743 4.0194 24.3113 3.9956C24.206 3.95899 24.0952 3.94099 23.9837 3.9424C23.2921 3.9424 21.6667 4.4506 18.3767 7.73219ZM4.83454 3.997C4.76734 4.0208 4.73934 4.0446 4.73374 4.046C3.41324 5.34615 2.36506 6.8964 1.65042 8.6062C0.935782 10.316 0.569016 12.1511 0.571546 14.0042C0.571546 17.3348 1.73634 20.3896 3.67534 22.7934C2.04294 19.754 7.85294 11.1832 10.7705 7.73219C7.48054 4.4492 5.85234 3.9452 5.16354 3.9452C5.05181 3.94156 4.94046 3.96012 4.83594 3.9998L4.83454 3.997ZM14.5715 4.1426C14.5715 4.1426 11.1359 2.1322 8.45354 2.037C7.39934 1.9992 6.75534 2.3814 6.67834 2.4318C9.18154 0.7546 11.8415 0 14.5547 0H14.5715C17.2945 0 19.9447 0.7532 22.4647 2.4318C22.3863 2.3786 21.7479 1.9978 20.6923 2.037C18.0085 2.1322 14.5715 4.137 14.5715 4.137V4.1426Z" fill="#259D25"/>
</g>
<defs>
<clipPath id="clip0_2126_516">
<rect width="28" height="28" fill="white" transform="translate(0.571533)"/>
</clipPath>
</defs>
</svg>
