<svg width="29" height="28" viewBox="0 0 29 28" fill="none" xmlns="http://www.w3.org/2000/svg">
<g clip-path="url(#clip0_2126_506)">
<rect x="8.30957" y="7" width="14" height="14" fill="white"/>
<path d="M11.3428 18.5L18.6088 14L11.3428 9.5V18.5ZM27.5268 6.755C27.7088 7.46 27.8348 8.405 27.9188 9.605C28.0168 10.805 28.0588 11.84 28.0588 12.74L28.1428 14C28.1428 17.285 27.9188 19.7 27.5268 21.245C27.1768 22.595 26.3648 23.465 25.1048 23.84C24.4468 24.035 23.2428 24.17 21.3948 24.26C19.5748 24.365 17.9088 24.41 16.3688 24.41L14.1428 24.5C8.27682 24.5 4.62282 24.26 3.18082 23.84C1.92082 23.465 1.10882 22.595 0.758822 21.245C0.576822 20.54 0.450822 19.595 0.366822 18.395C0.268822 17.195 0.226822 16.16 0.226822 15.26L0.142822 14C0.142822 10.715 0.366822 8.3 0.758822 6.755C1.10882 5.405 1.92082 4.535 3.18082 4.16C3.83882 3.965 5.04282 3.83 6.89082 3.74C8.71082 3.635 10.3768 3.59 11.9168 3.59L14.1428 3.5C20.0088 3.5 23.6628 3.74 25.1048 4.16C26.3648 4.535 27.1768 5.405 27.5268 6.755Z" fill="#FF0000"/>
</g>
<defs>
<clipPath id="clip0_2126_506">
<rect width="28" height="28" fill="white" transform="translate(0.142822)"/>
</clipPath>
</defs>
</svg>
